<?xml version="1.0" standalone="no"?>
<!DOCTYPE svg PUBLIC "-//W3C//DTD SVG 1.1//EN" "http://www.w3.org/Graphics/SVG/1.1/DTD/svg11.dtd" >
<svg xmlns="http://www.w3.org/2000/svg">
<metadata></metadata>
<defs>
<font id="klavikaregular" horiz-adv-x="1273" >
<font-face units-per-em="2048" ascent="1536" descent="-512" />
<missing-glyph horiz-adv-x="440" />
<glyph unicode="&#xfb01;" horiz-adv-x="1222" d="M61 854v143h177v185q0 133 71.5 198.5t210.5 65.5q94 0 187 -27l-15 -133q-41 8 -79 12.5t-70 4.5q-80 0 -106.5 -31t-26.5 -107v-168h649v-997h-172v854h-477v-854h-172v854h-177zM887 1157v248h172v-248h-172z" />
<glyph unicode="&#xfb02;" horiz-adv-x="1222" d="M61 854v143h177v185q0 133 71.5 198.5t210.5 65.5q94 0 193 -27l-15 -133q-39 8 -81 12.5t-74 4.5q-80 0 -106.5 -31t-26.5 -107v-168h274l-14 -143h-260v-854h-172v854h-177zM887 0v1405l172 25v-1430h-172z" />
<glyph unicode="&#xfb03;" horiz-adv-x="1925" d="M61 856v141h177v185q0 133 71.5 198.5t210.5 65.5q59 0 116.5 -7t108.5 -24l-14 -133q-41 8 -91 14.5t-97 6.5q-80 0 -106.5 -31t-26.5 -107v-168h530v185q0 133 71.5 198.5t211.5 65.5q94 0 186 -27l-14 -133q-41 8 -79 12.5t-71 4.5q-80 0 -106.5 -31t-26.5 -107v-168 h649v-997h-172v856h-477v-856h-172v856h-530v-856h-172v856h-177zM1589 1157v248h172v-248h-172z" />
<glyph unicode="&#xfb04;" horiz-adv-x="1925" d="M61 856v141h177v185q0 133 71.5 198.5t210.5 65.5q59 0 116.5 -7t108.5 -24l-14 -133q-41 8 -91 14.5t-97 6.5q-80 0 -106.5 -31t-26.5 -107v-168h530v185q0 133 71.5 198.5t211.5 65.5q94 0 192 -27l-14 -133q-39 8 -81 12.5t-75 4.5q-80 0 -106.5 -31t-26.5 -107v-168 h274l-14 -141h-260v-856h-172v856h-530v-856h-172v856h-177zM1589 0v1405l172 25v-1430h-172z" />
<glyph horiz-adv-x="2048" />
<glyph horiz-adv-x="2048" />
<glyph unicode="&#xd;" horiz-adv-x="440" />
<glyph unicode=" "  horiz-adv-x="440" />
<glyph unicode="&#x09;" horiz-adv-x="440" />
<glyph unicode="&#xa0;" horiz-adv-x="440" />
<glyph unicode="!" horiz-adv-x="544" d="M184 0v236h176v-236h-176zM186 737v668h172v-668l-32 -348h-107z" />
<glyph unicode="&#x22;" horiz-adv-x="768" d="M143 903v502h142v-502h-142zM483 903v502h142v-502h-142z" />
<glyph unicode="#" horiz-adv-x="1447" d="M123 354l8 129h266l21 381h-271l7 129h272l18 330h140l-19 -330h367l18 330h140l-19 -330h264l-8 -129h-264l-21 -381h269l-8 -129h-267l-16 -354h-139l16 354h-371l-22 -354h-139l22 354h-264zM537 483h366l21 381h-367z" />
<glyph unicode="$" horiz-adv-x="1060" d="M123 49l22 139q92 -29 190.5 -43t176.5 -14q82 0 130 10.5t73.5 35t33 64.5t7.5 99q0 57 -5.5 94t-31 63.5t-78.5 48t-147 52.5q-115 37 -183.5 69.5t-105.5 74.5t-48.5 100.5t-11.5 148.5q0 86 16.5 149.5t56.5 106.5t106.5 65.5t167.5 28.5v213h151v-215 q70 -4 137.5 -11t126.5 -23l-16 -146q-33 6 -76 12.5t-87 10.5t-88 7t-81 3q-72 0 -118 -7t-73.5 -28.5t-39 -61.5t-11.5 -108q0 -55 6.5 -90t30 -60.5t70.5 -46t127 -47.5q125 -41 199.5 -74.5t114.5 -75.5t51.5 -101.5t11.5 -149.5t-16.5 -154.5t-55.5 -107.5 t-101.5 -65.5t-154.5 -30.5v-215h-151v213q-78 4 -164 21t-162 46z" />
<glyph unicode="%" horiz-adv-x="1722" d="M102 918v188q0 63 14.5 114.5t50.5 88.5t93 56t143 19t143.5 -19t93.5 -56t50.5 -88.5t14.5 -114.5v-188q0 -63 -14.5 -114.5t-50.5 -88.5t-93.5 -56.5t-143.5 -19.5t-143 19.5t-93 56.5t-50.5 88t-14.5 115zM242 911q0 -74 34.5 -111.5t126.5 -37.5t127 38t35 111v201 q0 74 -34.5 112t-127.5 38q-92 0 -126.5 -38t-34.5 -112v-201zM516 33l551 1351l123 -51l-553 -1353zM1008 258v188q0 63 14 114.5t50 88.5t93.5 56.5t143.5 19.5t143 -19.5t93 -56.5t50.5 -88t14.5 -115v-188q0 -63 -14.5 -114.5t-50.5 -88.5t-93 -56t-143 -19t-143.5 19 t-93.5 56t-50 88.5t-14 114.5zM1147 252q0 -74 35 -112t127 -38t126.5 38t34.5 112v201q0 74 -34.5 111.5t-126.5 37.5t-127 -38t-35 -111v-201z" />
<glyph unicode="&#x26;" horiz-adv-x="1261" d="M154 307v125q0 100 45 169t135 93q-86 35 -119 98.5t-33 143.5v141q0 74 21.5 130.5t70 96t126 60t192.5 20.5q94 0 196.5 -10t178.5 -26l-17 -142q-78 12 -174 20.5t-182 8.5q-135 0 -187.5 -40t-52.5 -138v-137q0 -72 42 -117t143 -45h661v-148h-201v-573 q-104 -29 -208.5 -43t-208.5 -14q-233 0 -330.5 81.5t-97.5 245.5zM326 326q0 -53 12 -90t41 -60.5t79 -35t124 -11.5q68 0 128 5t126 20v456h-291q-117 0 -168 -43t-51 -143v-98z" />
<glyph unicode="'" horiz-adv-x="428" d="M143 903v502h142v-502h-142z" />
<glyph unicode="(" horiz-adv-x="622" d="M143 623q0 272 81 502.5t235 435.5l123 -82q-74 -115 -124 -220.5t-82 -210t-46.5 -209t-14.5 -216.5q0 -113 14.5 -217.5t46.5 -209t82 -211t124 -218.5l-123 -82q-154 205 -235 435t-81 503z" />
<glyph unicode=")" horiz-adv-x="622" d="M41 -233q74 113 124 219t82 210.5t46 209t14 217.5t-14 217t-46 208.5t-82 210t-124 220.5l123 82q154 -205 234.5 -435.5t80.5 -502.5t-81 -503t-234 -435z" />
<glyph unicode="*" horiz-adv-x="968" d="M102 1030v96h297l-161 250l77 51l168 -260l168 260l78 -51l-162 -250h299v-96h-295l160 -246l-80 -49l-168 260l-168 -260l-79 49l159 246h-293z" />
<glyph unicode="+" horiz-adv-x="1077" d="M123 426v143h340v346h151v-346h340v-143h-340v-346h-151v346h-340z" />
<glyph unicode="," horiz-adv-x="520" d="M143 -207l86 207h-59v236h176v-236l-123 -246z" />
<glyph unicode="-" horiz-adv-x="757" d="M123 500v141h512v-141h-512z" />
<glyph unicode="." horiz-adv-x="524" d="M174 0v236h176v-236h-176z" />
<glyph unicode="/" horiz-adv-x="913" d="M123 -240l504 1624h164l-506 -1624h-162z" />
<glyph unicode="0" horiz-adv-x="1130" d="M143 334v655q0 76 21.5 141.5t71 112.5t130 73.5t199.5 26.5t200 -26.5t130 -73.5t70.5 -112.5t21.5 -141.5v-655q0 -78 -21.5 -142.5t-70.5 -111.5t-130 -73.5t-200 -26.5t-199.5 26.5t-130 73.5t-71 111.5t-21.5 142.5zM315 352q0 -113 54.5 -167t195.5 -54t195.5 54.5 t54.5 166.5v619q0 113 -54 167t-196 54q-141 0 -195.5 -54.5t-54.5 -166.5v-619z" />
<glyph unicode="1" horiz-adv-x="716" d="M20 1116l359 207h153v-1323h-172v1126l-264 -147z" />
<glyph unicode="2" horiz-adv-x="995" d="M102 0v158q57 63 96.5 108t76 88t77.5 91.5t103 119.5q78 92 123 152.5t67.5 102.5t27.5 74t5 69v59q0 49 -8 81t-35 51.5t-74 27.5t-125 8q-37 0 -78 -4t-80.5 -10.5t-77.5 -14.5t-67 -16l-24 147q66 20 158.5 35.5t183.5 15.5q119 0 195.5 -20t121.5 -60t63.5 -100.5 t18.5 -138.5v-45q0 -61 -8 -108.5t-33 -98.5t-71 -113.5t-122 -154.5q-55 -66 -89.5 -109t-65.5 -77.5t-63.5 -72.5t-82.5 -93h547v-152h-760z" />
<glyph unicode="3" horiz-adv-x="997" d="M102 20l19 144q143 -33 299 -33q145 0 203.5 39t58.5 137v103q0 100 -53.5 139t-153.5 39h-280v151h258q119 0 161.5 44t42.5 126v119q0 92 -49 128t-172 36q-70 0 -143.5 -8t-145.5 -23l-18 146q66 16 148.5 26t162.5 10q109 0 182.5 -18t119.5 -55t66.5 -91.5 t20.5 -125.5v-121q0 -47 -6 -85t-23.5 -71t-48 -59.5t-77.5 -48.5q86 -25 133 -79t47 -165v-133q0 -160 -101.5 -235.5t-332.5 -75.5q-74 0 -163 9t-155 31z" />
<glyph unicode="4" horiz-adv-x="1099" d="M45 326v170l571 827h232v-850h190v-147h-190v-326h-172v326h-631zM215 473h461v676z" />
<glyph unicode="5" horiz-adv-x="1015" d="M119 27l18 139q78 -18 164 -26.5t160 -8.5q76 0 125 10.5t76.5 34t38 61t10.5 93.5v90q0 45 -9.5 78.5t-33 55t-64.5 32t-104 12.5q-104 4 -178 4t-152 2v719h696v-152h-524v-419q33 0 57.5 -1t49 -1t51 -1t61.5 -4q92 -4 153.5 -27.5t98.5 -63.5t53.5 -94t16.5 -122 v-119q0 -82 -19.5 -145t-67.5 -106t-129 -65.5t-204 -22.5q-78 0 -172 10t-172 37z" />
<glyph unicode="6" horiz-adv-x="1048" d="M143 295v586q0 127 30 215t94.5 143t166 79.5t246.5 24.5q47 0 111.5 -6t113.5 -18l-18 -143q-37 8 -90.5 13t-89.5 5q-119 0 -196 -14.5t-121 -50t-60.5 -97t-16.5 -153.5v-168q51 18 128 32.5t145 14.5q195 0 272.5 -82t77.5 -244v-65q0 -90 -15.5 -162t-58.5 -122 t-119.5 -76.5t-199.5 -26.5q-111 0 -186.5 22.5t-124 63t-69 99t-20.5 130.5zM313 319q0 -109 56.5 -148.5t173.5 -39.5q66 0 108.5 10.5t68 33t36 58t10.5 86.5v113q0 94 -42 135t-155 41q-68 0 -136 -16.5t-120 -38.5v-234z" />
<glyph unicode="7" horiz-adv-x="901" d="M51 1171v152h813v-145l-545 -1178h-174l543 1171h-637z" />
<glyph unicode="8" horiz-adv-x="1114" d="M133 305v60q0 51 12.5 95t40 81t74.5 69.5t115 65.5q-123 59 -165 127.5t-42 165.5v53q0 70 19.5 129t64.5 102t119.5 66.5t185.5 23.5t185.5 -23.5t119.5 -66.5t64.5 -102t19.5 -129v-53q0 -96 -44 -165t-169 -128q70 -33 117 -65.5t76.5 -69.5t42 -81t12.5 -95v-60 q0 -172 -99.5 -248.5t-324.5 -76.5q-227 0 -325.5 76.5t-98.5 248.5zM301 311q0 -104 56.5 -144t199.5 -40q141 0 198.5 40t57.5 144v47q0 43 -11 75t-40 57.5t-79 51t-126 56.5q-78 -31 -127 -56.5t-77.5 -51t-40 -57.5t-11.5 -75v-47zM336 965q0 -39 10 -69t35 -54.5 t68 -47t108 -49.5q66 27 109 49.5t67.5 47t34.5 54.5t10 69v65q0 80 -47 124t-174 44q-129 0 -175 -44t-46 -124v-65z" />
<glyph unicode="9" horiz-adv-x="1048" d="M113 891v65q0 90 16 162t59 122t120 76.5t198 26.5q111 0 186.5 -23.5t123.5 -65.5t68.5 -101t20.5 -131v-580q0 -127 -29.5 -215t-94 -143t-167 -79.5t-245.5 -24.5q-47 0 -111.5 6t-114.5 18l17 143q37 -8 91 -13t91 -5q119 0 195.5 14.5t120.5 50t60.5 97t16.5 153.5 v168q-51 -18 -128 -32.5t-144 -14.5q-195 0 -272.5 81t-77.5 245zM283 891q0 -94 41.5 -135t154.5 -41q68 0 136.5 16.5t119.5 38.5v234q0 109 -56 148.5t-173 39.5q-66 0 -109 -10.5t-68.5 -33t-35.5 -58t-10 -86.5v-113z" />
<glyph unicode=":" horiz-adv-x="524" d="M174 0v236h176v-236h-176zM174 627v235h176v-235h-176z" />
<glyph unicode=";" horiz-adv-x="520" d="M143 -207l86 207h-59v236h176v-236l-123 -246zM170 627v235h176v-235h-176z" />
<glyph unicode="&#x3c;" horiz-adv-x="1142" d="M102 446v107l846 467l62 -113l-748 -407l748 -408l-62 -112z" />
<glyph unicode="=" horiz-adv-x="1042" d="M143 248v127h756v-127h-756zM143 612v127h756v-127h-756z" />
<glyph unicode="&#x3e;" horiz-adv-x="1142" d="M133 92l748 408l-748 407l62 113l845 -467v-107l-845 -466z" />
<glyph unicode="?" horiz-adv-x="974" d="M113 1389q29 8 69.5 14t85.5 11t91.5 8t84.5 3q125 0 203 -22.5t121 -68.5t58.5 -114.5t15.5 -162.5q0 -84 -5.5 -139.5t-23.5 -98.5t-55 -82t-101 -90q-66 -51 -124 -94t-123 -94l-99 131q59 47 111.5 84t116.5 88q47 39 73.5 66.5t39 56t15.5 66.5t3 98q0 63 -7.5 106 t-32 69.5t-71.5 37t-127 10.5q-31 0 -68.5 -2t-77.5 -6t-79 -9.5t-72 -13.5zM309 0v236h176v-236h-176z" />
<glyph unicode="@" horiz-adv-x="1523" d="M123 682q0 154 48 283t136 222t211 145t273 52q152 0 267.5 -40.5t194 -114.5t118.5 -178.5t40 -229.5q0 -88 -22.5 -163.5t-67.5 -131t-114.5 -87t-162.5 -31.5q-61 0 -106 18t-68 55q-51 -29 -102 -43t-109 -14q-86 0 -122.5 45t-22.5 123l41 235q18 102 75.5 143.5 t170.5 41.5q57 0 122.5 -16.5t120.5 -41.5l-75 -430q12 -4 31.5 -8t48.5 -4q68 0 112.5 25.5t72.5 68.5t39 98.5t11 112.5q0 205 -127 328t-366 123q-115 0 -212.5 -42t-170 -119t-113.5 -185.5t-41 -239.5t37 -239.5t112.5 -185.5t187 -119t263.5 -42q100 0 186 20.5 t179 57.5l36 -102q-88 -47 -194.5 -69.5t-210.5 -22.5q-176 0 -311.5 51t-227.5 143t-140 221t-48 287zM635 604q-8 -41 6 -55t61 -14q35 0 81 12t77 35l53 305q-29 10 -62.5 16t-68.5 6q-94 0 -108 -84z" />
<glyph unicode="A" d="M57 0l461 1364h238l461 -1364h-179l-112 328h-580l-110 -328h-179zM393 481h488l-244 756z" />
<glyph unicode="B" horiz-adv-x="1169" d="M174 0v1364h526q162 0 242 -70.5t80 -206.5v-157q0 -78 -32 -135.5t-124 -92.5q90 -16 145.5 -75.5t55.5 -169.5v-164q0 -143 -92 -218t-246 -75h-555zM350 152h355q186 0 186 155v144q0 82 -47 124.5t-150 42.5h-344v-466zM350 770h312q100 0 142 43t42 117v153 q0 129 -156 129h-340v-442z" />
<glyph unicode="C" horiz-adv-x="1056" d="M143 381v602q0 193 108.5 297t358.5 104q39 0 83 -3t90 -7t90.5 -11t80.5 -15l-18 -152q-39 6 -82 12t-86 9.5t-82 5.5t-70 2q-84 0 -140 -12.5t-91 -42t-50.5 -78t-15.5 -119.5v-582q0 -72 15.5 -120t50.5 -77.5t91 -42t140 -12.5q31 0 70 2t82 5.5t86 9.5t82 12 l18 -152q-37 -8 -81 -15t-90 -11t-90 -7t-83 -3q-250 0 -358.5 103t-108.5 298z" />
<glyph unicode="D" horiz-adv-x="1222" d="M174 0v1364h477q125 0 209 -30.5t135.5 -84t73 -124t21.5 -152.5v-582q0 -82 -21.5 -152.5t-73 -124t-135.5 -84t-209 -30.5h-477zM350 158h295q78 0 129 16t82 47t44 77t13 105v558q0 59 -13 105t-44 77t-82 47t-129 16h-295v-1048z" />
<glyph unicode="E" horiz-adv-x="1105" d="M174 0v1364h803v-158h-627v-428h582v-157h-582v-463h629v-158h-805z" />
<glyph unicode="F" horiz-adv-x="1067" d="M174 0v1364h811v-158h-635v-454h592v-158h-592v-594h-176z" />
<glyph unicode="G" horiz-adv-x="1183" d="M143 381v600q0 209 111 306t367 97q88 0 185 -10t193 -33l-20 -151q-98 16 -189.5 25.5t-177.5 9.5q-84 0 -140 -13.5t-90 -43t-48.5 -78t-14.5 -117.5v-582q0 -66 11.5 -113t43.5 -77.5t87 -46t143 -15.5q53 0 118.5 5.5t137.5 19.5v463h170v-588q-100 -29 -212.5 -44 t-219.5 -15q-131 0 -218 27.5t-139.5 78.5t-75 126t-22.5 169z" />
<glyph unicode="H" horiz-adv-x="1304" d="M174 0v1364h176v-588h604v588h176v-1364h-176v618h-604v-618h-176z" />
<glyph unicode="I" horiz-adv-x="544" d="M184 0v1364h176v-1364h-176z" />
<glyph unicode="J" horiz-adv-x="524" d="M-18 -281q70 68 108.5 107t57 65.5t22.5 50t4 58.5v1364h176v-1370q0 -61 -7 -100t-33.5 -78t-78 -89.5t-139.5 -132.5z" />
<glyph unicode="K" horiz-adv-x="1204" d="M174 0v1364h176v-1364h-176zM393 694l492 670h207l-500 -670l541 -694h-211z" />
<glyph unicode="L" horiz-adv-x="1024" d="M174 0v1364h176v-1206h592v-158h-768z" />
<glyph unicode="M" horiz-adv-x="1634" d="M154 0l47 1364h223l393 -1055l393 1055h224l47 -1364h-170l-27 1106l-348 -930h-238l-348 930l-26 -1106h-170z" />
<glyph unicode="N" horiz-adv-x="1351" d="M174 0v1364h242l594 -1167v1167h168v-1364h-242l-594 1161v-1161h-168z" />
<glyph unicode="O" d="M143 393v578q0 86 28 160.5t87 131t152.5 89t226.5 32.5q131 0 225 -32.5t153.5 -89t87 -131t27.5 -160.5v-578q0 -86 -27.5 -160.5t-87 -131t-153.5 -89t-225 -32.5q-133 0 -226.5 32.5t-152.5 89t-87 131t-28 160.5zM319 397q0 -127 78 -194.5t240 -67.5t239.5 67.5 t77.5 194.5v570q0 127 -77.5 194.5t-239.5 67.5t-240 -67.5t-78 -194.5v-570z" />
<glyph unicode="P" horiz-adv-x="1140" d="M174 0v1364h494q111 0 185.5 -23.5t121.5 -66.5t67.5 -105.5t20.5 -140.5v-203q0 -80 -20.5 -142t-67.5 -105t-122 -67t-185 -24h-318v-487h-176zM350 645h312q127 0 176 40t49 140v201q0 102 -49.5 141t-175.5 39h-312v-561z" />
<glyph unicode="Q" d="M143 393v578q0 86 28 160.5t87 131t152.5 89t226.5 32.5q131 0 225 -32.5t153.5 -89t87 -131t27.5 -160.5v-578q0 -74 -20 -139.5t-63 -118.5t-111 -91t-162 -52l115 -260l-158 -72l-141 322q-119 6 -204 40.5t-138 90t-79 127t-26 153.5zM319 397q0 -127 78 -194.5 t240 -67.5t239.5 67.5t77.5 194.5v570q0 127 -77.5 194.5t-239.5 67.5t-240 -67.5t-78 -194.5v-570z" />
<glyph unicode="R" horiz-adv-x="1294" d="M174 0v1364h520q111 0 185.5 -23.5t122 -66.5t68 -105.5t20.5 -140.5v-197q0 -123 -49.5 -202.5t-168.5 -114.5l355 -514h-203l-340 494h-334v-494h-176zM350 649h338q127 0 176 40t49 140v197q0 102 -49 141t-176 39h-338v-557z" />
<glyph unicode="S" horiz-adv-x="1105" d="M123 51l29 144q190 -59 380 -60q82 0 133.5 11.5t81 37t40 65.5t10.5 99q0 70 -5.5 111t-32 66.5t-84 44t-161.5 42.5q-123 27 -196.5 56.5t-111.5 74.5t-49.5 114t-11.5 175q0 88 20.5 154.5t71 110.5t134.5 65.5t211 21.5q90 0 188 -11t180 -34l-14 -149 q-82 18 -173 28.5t-177 10.5q-84 0 -135.5 -9.5t-80 -33t-38.5 -62.5t-10 -98q0 -72 4 -112t29.5 -65.5t79.5 -44t157 -42.5q135 -35 212 -65.5t114.5 -73.5t46 -107t8.5 -164q0 -90 -16.5 -158.5t-64.5 -116.5t-135 -72.5t-229 -24.5q-98 0 -207.5 18t-197.5 53z" />
<glyph unicode="T" horiz-adv-x="1073" d="M41 1206v158h991v-158h-407v-1206h-176v1206h-408z" />
<glyph unicode="U" horiz-adv-x="1294" d="M164 383v981h176v-971q0 -127 72.5 -191.5t234.5 -64.5t234.5 64.5t72.5 191.5v971h176v-981q0 -84 -25.5 -157.5t-82.5 -128t-149.5 -86t-225.5 -31.5t-225 31.5t-149.5 86t-83 128t-25.5 157.5z" />
<glyph unicode="V" horiz-adv-x="1212" d="M37 1364h170l399 -1210l400 1210h170l-451 -1364h-238z" />
<glyph unicode="W" horiz-adv-x="1859" d="M41 1364h172l311 -1196l283 1196h246l282 -1196l312 1196h172l-359 -1364h-248l-282 1219l-283 -1219h-248z" />
<glyph unicode="X" horiz-adv-x="1206" d="M61 0l443 692l-428 672h188l338 -533l340 533h188l-430 -672l445 -692h-189l-354 553l-352 -553h-189z" />
<glyph unicode="Y" horiz-adv-x="1122" d="M20 1364h185l356 -762l357 762h184l-453 -952v-412h-176v412z" />
<glyph unicode="Z" horiz-adv-x="1187" d="M143 0v152l703 1060h-690v152h884v-152l-704 -1060h719v-152h-912z" />
<glyph unicode="[" horiz-adv-x="632" d="M195 -258v1876h397v-148h-225v-1581h225v-147h-397z" />
<glyph unicode="\" horiz-adv-x="903" d="M123 1384h164l504 -1624h-162z" />
<glyph unicode="]" horiz-adv-x="632" d="M41 -111h225v1581h-225v148h397v-1876h-397v147z" />
<glyph unicode="^" horiz-adv-x="942" d="M92 836l305 569h148l305 -569l-123 -64l-256 483l-256 -483z" />
<glyph unicode="_" horiz-adv-x="909" d="M-2 -154h913v-102h-913v102z" />
<glyph unicode="`" horiz-adv-x="641" d="M143 1296l74 115q53 -45 128 -93t153 -93l-70 -107q-78 41 -145.5 83t-139.5 95z" />
<glyph unicode="a" horiz-adv-x="1009" d="M127 266q0 156 77 218.5t228 62.5h266v155q0 94 -48 131t-169 37q-37 0 -76.5 -3t-79.5 -7t-77 -10t-66 -12l-18 137q72 18 160 30.5t168 12.5q106 0 178.5 -20.5t116.5 -61.5t63.5 -101.5t19.5 -140.5v-694h-145l-10 74q-66 -47 -149 -70.5t-175 -23.5 q-141 0 -202.5 76.5t-61.5 209.5zM299 270q0 -39 5 -65.5t19.5 -44t42 -25.5t74.5 -8q66 0 133.5 22.5t124.5 59.5v194h-254q-80 0 -112.5 -28.5t-32.5 -104.5z" />
<glyph unicode="b" horiz-adv-x="1062" d="M164 18v1387l172 25v-482q53 29 136 49.5t179 20.5q156 0 224.5 -84t68.5 -227v-355q0 -86 -18.5 -154.5t-65.5 -116.5t-129 -74.5t-211 -26.5q-35 0 -79 2t-91 7t-95 12t-91 17zM336 145q51 -8 100 -11t96 -3q76 0 123 15.5t73 43t35 67.5t9 89v367q0 78 -37 115.5 t-125 37.5q-33 0 -70.5 -7t-74.5 -18.5t-71 -24.5t-58 -25v-646z" />
<glyph unicode="c" horiz-adv-x="837" d="M102 342v313q0 86 18.5 154t63.5 114t122 70.5t194 24.5q66 0 132 -9.5t105 -21.5l-14 -143q-59 12 -112.5 17t-106.5 5q-129 0 -179.5 -44t-50.5 -160v-326q0 -117 50.5 -161t179.5 -44q53 0 106.5 5t112.5 18l16 -144q-39 -12 -106 -21t-133 -9q-121 0 -198 24.5 t-121 70.5t-61.5 113.5t-17.5 153.5z" />
<glyph unicode="d" horiz-adv-x="1071" d="M127 285v407q0 74 17.5 134.5t56.5 103.5t100 65.5t150 22.5q66 0 145.5 -9.5t138.5 -21.5v418l172 25v-1430h-145l-14 90q-61 -49 -146.5 -79.5t-183.5 -30.5q-291 0 -291 305zM299 285q0 -78 30.5 -116t123.5 -38q74 0 150.5 35t131.5 84v586q-70 14 -145.5 22 t-128.5 8q-86 0 -124 -41t-38 -133v-407z" />
<glyph unicode="e" horiz-adv-x="985" d="M113 346v299q0 78 19.5 145.5t64.5 119t120.5 80t186.5 28.5t183.5 -30t114.5 -81t59.5 -119.5t17.5 -146.5v-209h-594v-84q0 -59 10 -101t35.5 -68.5t72 -39t119.5 -12.5q74 0 154 12.5t162 34.5l22 -137q-72 -27 -165 -42t-187 -15q-111 0 -186.5 25.5t-121.5 72.5 t-66.5 115.5t-20.5 152.5zM285 575h428v82q0 104 -44 160.5t-165 56.5q-123 0 -171 -56t-48 -161v-82z" />
<glyph unicode="f" horiz-adv-x="722" d="M61 854v143h177v185q0 133 71.5 198.5t210.5 65.5q49 0 100.5 -6t102.5 -23l-14 -133q-41 8 -87.5 13.5t-78.5 5.5q-80 0 -106.5 -31t-26.5 -107v-168h284l-14 -143h-270v-854h-172v854h-177z" />
<glyph unicode="g" horiz-adv-x="1003" d="M92 631v45q0 82 20.5 145.5t66.5 107.5t121 66.5t181 22.5q39 0 86 -5t82 -16h287v-100l-119 -23q29 -39 41 -89t14 -109v-45q0 -162 -97 -251t-294 -89q-57 0 -102 6q-27 -23 -49.5 -48.5t-22.5 -58.5q0 -29 15.5 -41t50.5 -16q39 -4 70.5 -7t63.5 -6t66.5 -7t81.5 -9 q135 -14 192.5 -69t57.5 -170q0 -82 -17.5 -137.5t-65.5 -89t-133 -48t-220 -14.5q-35 0 -80 3t-94 9t-97 14.5t-92 20.5l25 135q78 -18 168 -29.5t166 -11.5q94 0 150.5 7.5t84 23.5t35.5 43t8 66q0 31 -6 50t-23.5 31.5t-46 17.5t-71.5 9q-41 4 -71.5 7t-58.5 5.5 t-59.5 5.5t-74.5 7q-111 10 -153 61t-42 121q0 55 26.5 100t67.5 76q-72 41 -105.5 112.5t-33.5 170.5zM254 631q0 -115 52 -157t175 -42t175.5 50t52.5 149v43q0 111 -51.5 157t-176.5 46t-176 -46.5t-51 -156.5v-43z" />
<glyph unicode="h" horiz-adv-x="1091" d="M164 0v1405l172 25v-517q41 20 90 39t100.5 33t101.5 23.5t93 9.5q121 0 169 -68.5t48 -185.5v-764h-172v762q0 49 -24.5 70.5t-71.5 21.5q-29 0 -69 -8t-86 -22.5t-93 -33t-86 -38.5v-752h-172z" />
<glyph unicode="i" horiz-adv-x="499" d="M164 0v997h172v-997h-172zM164 1157v248h172v-248h-172z" />
<glyph unicode="j" horiz-adv-x="489" d="M0 -293q61 55 94 87t48.5 55.5t18.5 45t3 52.5v1050h172v-1060q0 -53 -6 -88t-28.5 -69t-69 -78t-128.5 -116zM164 1157v248h172v-248h-172z" />
<glyph unicode="k" horiz-adv-x="991" d="M164 0v1405l172 25v-1430h-172zM379 504l352 493h199l-357 -493l373 -504h-203z" />
<glyph unicode="l" horiz-adv-x="499" d="M164 0v1405l172 25v-1430h-172z" />
<glyph unicode="m" horiz-adv-x="1693" d="M164 0v997h139l16 -86q41 20 92.5 39t105.5 34t106.5 24.5t97.5 9.5q78 0 123 -27.5t67 -79.5q45 20 97.5 40t106.5 35t107.5 23.5t100.5 8.5q121 0 169 -68.5t48 -185.5v-764h-172v762q0 49 -24.5 70.5t-71.5 21.5q-31 0 -72 -8t-86 -21.5t-91 -32t-85 -38.5v-754h-172 v762q0 49 -24.5 70.5t-71.5 21.5q-29 0 -69 -8t-86 -21.5t-93 -32t-86 -38.5v-754h-172z" />
<glyph unicode="n" horiz-adv-x="1091" d="M164 0v997h139l16 -86q41 20 92.5 39t105.5 34t106.5 24.5t97.5 9.5q121 0 169 -68.5t48 -185.5v-764h-172v762q0 49 -24.5 70.5t-71.5 21.5q-29 0 -69 -8t-86 -21.5t-93 -32t-86 -38.5v-754h-172z" />
<glyph unicode="o" horiz-adv-x="1036" d="M113 354v289q0 78 22.5 146.5t71.5 118.5t126 80t185 30q109 0 185.5 -30t126 -80t72 -118.5t22.5 -146.5v-289q0 -78 -22.5 -146.5t-72 -119.5t-126 -79.5t-185.5 -28.5t-185.5 28.5t-125.5 79.5t-71.5 119.5t-22.5 146.5zM285 348q0 -219 233 -219t234 219v301 q0 219 -234 219q-233 0 -233 -219v-301z" />
<glyph unicode="p" horiz-adv-x="1071" d="M164 -428v1425h145l15 -90q61 49 146 80t183 31q291 0 291 -305v-408q0 -150 -74.5 -237.5t-248.5 -87.5q-66 0 -146 9t-139 21v-413zM336 162q70 -14 145.5 -22.5t128.5 -8.5q86 0 124 41t38 133v408q0 78 -30.5 115.5t-123.5 37.5q-74 0 -150.5 -34.5t-131.5 -83.5 v-586z" />
<glyph unicode="q" horiz-adv-x="1062" d="M119 291v354q0 86 18.5 154.5t65.5 117t129 75t211 26.5q35 0 79 -2t91 -7t95 -12.5t91 -17.5v-1382l-172 -25v477q-53 -29 -136 -49t-179 -20q-156 0 -224.5 83.5t-68.5 227.5zM291 285q0 -78 37 -116t125 -38q33 0 70.5 7t74.5 18.5t70.5 25t58.5 25.5v645 q-51 8 -100 11t-97 3q-76 0 -123 -15t-72.5 -43t-34.5 -68t-9 -89v-366z" />
<glyph unicode="r" horiz-adv-x="630" d="M164 0v997h149l11 -139q55 43 127.5 86t146.5 74l23 -158q-72 -35 -148 -82t-137 -90v-688h-172z" />
<glyph unicode="s" horiz-adv-x="899" d="M123 33l22 135q66 -18 143 -29.5t142 -11.5q59 0 95 6t56.5 21.5t26.5 41t6 66.5q0 39 -4 63.5t-24.5 42t-62.5 31t-117 31.5q-92 23 -146.5 46.5t-82 58t-35 86t-7.5 129.5q0 70 16.5 120t56.5 82.5t106.5 49t164.5 16.5q72 0 146.5 -9.5t136.5 -25.5l-12 -141 q-63 12 -139 20t-138 8q-55 0 -88 -7t-51.5 -21.5t-23.5 -39t-5 -57.5q0 -41 3 -67.5t19.5 -45t50.5 -31.5t97 -28q106 -27 169 -50t93.5 -55t38.5 -79t8 -121t-13 -128t-51 -90t-105.5 -53t-174.5 -17q-39 0 -82 4t-85 11t-80.5 16t-69.5 22z" />
<glyph unicode="t" horiz-adv-x="755" d="M51 854v143h176v246l172 25v-271h283l-14 -143h-269v-618q0 -55 16.5 -83t86.5 -28q35 0 73.5 6t86.5 19l22 -134q-47 -16 -100.5 -26t-108.5 -10q-127 0 -187.5 51t-60.5 176v647h-176z" />
<glyph unicode="u" horiz-adv-x="1091" d="M154 233v764h172v-761q0 -49 24.5 -71t71.5 -22q27 0 67.5 8.5t87 21.5t92.5 31.5t87 39.5v753h172v-997h-140l-16 86q-41 -20 -92 -38.5t-105.5 -34t-106.5 -24.5t-97 -9q-121 0 -169 68.5t-48 184.5z" />
<glyph unicode="v" horiz-adv-x="921" d="M16 997h170l275 -856l274 856h170l-330 -997h-229z" />
<glyph unicode="w" horiz-adv-x="1425" d="M37 997h164l166 -827l241 827h209l242 -827l166 827h164l-213 -997h-222l-241 846l-242 -846h-221z" />
<glyph unicode="x" horiz-adv-x="917" d="M37 0l328 502l-322 495h178l238 -366l237 366h178l-323 -495l330 -502h-181l-241 371l-240 -371h-182z" />
<glyph unicode="y" horiz-adv-x="917" d="M16 997h170l273 -860l276 860h170l-330 -997l-141 -403h-162l140 403h-72z" />
<glyph unicode="z" horiz-adv-x="940" d="M123 0v139l508 719h-498v139h688l-2 -139l-508 -719h516v-139h-704z" />
<glyph unicode="{" horiz-adv-x="641" d="M113 594v139h47q51 0 68.5 22.5t17.5 63.5v529q0 143 51 206.5t190 63.5h134v-145h-123q-43 0 -61.5 -18.5t-18.5 -63.5v-494q0 -23 -1 -61.5t-12.5 -75.5t-40 -65.5t-83.5 -30.5q55 -4 83.5 -32t40 -65t12.5 -75.5t1 -61.5v-493q0 -45 18.5 -63.5t61.5 -18.5h123v-146 h-134q-139 0 -190 63.5t-51 207.5v528q0 41 -17.5 63.5t-68.5 22.5h-47z" />
<glyph unicode="|" horiz-adv-x="526" d="M205 -430v2048h117v-2048h-117z" />
<glyph unicode="}" horiz-adv-x="641" d="M20 -145h123q43 0 61.5 18t18.5 64v493q0 23 1 61.5t12.5 75.5t40 64.5t83.5 32.5q-55 2 -83.5 30.5t-40 65.5t-12.5 75.5t-1 61.5v494q0 45 -18.5 63.5t-61.5 18.5h-123v145h134q139 0 190 -63.5t51 -206.5v-529q0 -41 17.5 -63.5t68.5 -22.5h47v-139h-47 q-51 0 -68.5 -22.5t-17.5 -63.5v-528q0 -143 -51 -207t-190 -64h-134v146z" />
<glyph unicode="~" horiz-adv-x="1024" d="M92 463q41 106 100.5 172.5t161.5 66.5q51 0 93 -23.5t80 -52t73 -52t74 -23.5q33 0 56.5 13.5t40.5 35t28.5 50t23.5 57.5l109 -50q-16 -47 -38 -90t-52.5 -76.5t-72.5 -54t-97 -20.5t-98.5 23.5t-80 51t-70.5 51t-71 23.5q-61 0 -92 -43t-59 -112z" />
<glyph unicode="&#xa1;" horiz-adv-x="544" d="M184 762v235h176v-235h-176zM186 260l33 348h107l32 -348v-663h-172v663z" />
<glyph unicode="&#xa2;" horiz-adv-x="868" d="M113 524v314q0 76 14 137t48 106t92.5 74t144.5 39v190h137v-184q53 -4 104.5 -10t89.5 -16l-10 -144q-59 10 -112.5 14.5t-106.5 4.5q-129 0 -179 -44t-50 -161v-326q0 -117 50 -161t179 -44q45 0 99.5 4.5t119.5 14.5l12 -144q-92 -25 -196 -26v-182h-137v186 q-90 10 -147.5 38.5t-91.5 74t-47 106.5t-13 139z" />
<glyph unicode="&#xa3;" horiz-adv-x="1091" d="M143 612v136h179q-43 72 -62.5 148.5t-19.5 135.5q0 162 89 236.5t302 74.5q78 0 167 -12t158 -31l-20 -141q-31 8 -70 14.5t-81 11.5t-81.5 8t-72.5 3q-61 0 -103.5 -8t-68 -28.5t-36.5 -53.5t-11 -84q0 -72 23.5 -137.5t64.5 -136.5h393l-6 -136h-350q8 -18 12 -44.5 t4 -49.5q0 -92 -41 -182t-133 -186h579v-150h-788v150q98 78 154.5 171t56.5 197q0 53 -19 94h-219z" />
<glyph unicode="&#xa4;" horiz-adv-x="1138" d="M143 268l131 131q-35 55 -34 144v288q0 84 34 142l-131 131l107 106l141 -141q68 31 178 31q53 0 98.5 -8.5t80.5 -22.5l141 141l106 -106l-131 -131q18 -31 26.5 -67t8.5 -75v-288q0 -88 -35 -144l131 -131l-106 -106l-141 141q-72 -31 -179 -31q-109 0 -178 29 l-141 -139zM393 569q0 -84 35 -120.5t141 -36.5q102 0 139 36.5t37 120.5v234q0 82 -36.5 120t-139.5 38q-106 0 -141 -37t-35 -121v-234z" />
<glyph unicode="&#xa5;" horiz-adv-x="1126" d="M41 1323h184l338 -721l338 721h184l-286 -600h211v-121h-269l-90 -190h359v-121h-359v-291h-176v291h-356v121h356l-92 190h-264v121h207z" />
<glyph unicode="&#xa6;" horiz-adv-x="526" d="M205 424h117v-854h-117v854zM205 764v854h117v-854h-117z" />
<glyph unicode="&#xa7;" horiz-adv-x="1128" d="M143 1153q0 123 65.5 177t225.5 54q72 0 157 -14t146 -37l-22 -123q-74 16 -150 28.5t-135 12.5q-80 0 -104.5 -25.5t-24.5 -90.5q0 -109 19.5 -237t53.5 -269.5t78 -288.5t93 -295l-144 -45q-53 154 -100 309.5t-82 305t-55.5 286.5t-20.5 252zM401 -330l23 123 q74 -16 149.5 -28.5t135.5 -12.5q80 0 104.5 25.5t24.5 91.5q0 106 -19.5 235t-53.5 270.5t-78 289t-93 294.5l143 46q53 -154 100.5 -310.5t82 -305t55 -286t20.5 -252.5q0 -123 -65.5 -177t-224.5 -54q-72 0 -157 14.5t-147 36.5z" />
<glyph unicode="&#xa8;" horiz-adv-x="800" d="M143 1149v170h160v-170h-160zM498 1149v170h159v-170h-159z" />
<glyph unicode="&#xa9;" horiz-adv-x="1648" d="M123 682q0 145 50 273t142.5 223.5t221.5 150.5t286 55q160 0 290 -55t221 -150.5t141.5 -223.5t50.5 -273t-50.5 -273t-141.5 -223.5t-221 -150.5t-290 -55q-158 0 -286.5 55t-221 150.5t-142.5 223.5t-50 273zM250 682q0 -121 40 -227.5t114.5 -185.5t180 -124 t238.5 -45t239.5 45t181.5 124t115 185.5t40 227.5t-40 227.5t-115 185.5t-181.5 124t-239.5 45t-238.5 -45t-180 -124t-114.5 -185.5t-40 -227.5zM580 547v282q0 115 59 168.5t207 53.5q47 0 100 -7.5t96 -19.5l-12 -109q-41 10 -89 15.5t-91 5.5q-47 0 -74.5 -5t-43 -19.5 t-20.5 -37t-5 -57.5v-258q0 -35 5 -57.5t20.5 -36.5t43 -19.5t74.5 -5.5q43 0 91 5.5t89 15.5l12 -109q-43 -12 -96 -19t-100 -7q-147 0 -206.5 53t-59.5 168z" />
<glyph unicode="&#xaa;" horiz-adv-x="776" d="M154 961q0 98 47 136t141 38h164v96q0 59 -28.5 81.5t-104.5 22.5q-45 0 -97.5 -7t-87.5 -15l-12 86q39 10 96.5 18t106.5 8q133 0 183 -50t50 -150v-428h-90l-6 45q-41 -29 -92 -43.5t-107 -14.5q-88 0 -125.5 47.5t-37.5 129.5zM260 965q0 -47 14.5 -69t71.5 -22 q41 0 83 14.5t77 37.5v121h-156q-49 0 -69.5 -17.5t-20.5 -64.5z" />
<glyph unicode="&#xab;" horiz-adv-x="991" d="M82 500l260 395l119 -78l-209 -317l209 -318l-119 -78zM479 500l260 395l119 -78l-209 -317l209 -318l-119 -78z" />
<glyph unicode="&#xac;" horiz-adv-x="1128" d="M123 469v143h831v-489h-151v346h-680z" />
<glyph unicode="&#xad;" horiz-adv-x="757" d="M123 500v141h512v-141h-512z" />
<glyph unicode="&#xae;" horiz-adv-x="964" d="M113 1055q0 76 25.5 143.5t73.5 118.5t116.5 79.5t154.5 28.5t154 -28.5t116 -79.5t73.5 -119t25.5 -143q0 -78 -25.5 -144.5t-73.5 -118t-116 -80t-154 -28.5t-154.5 28.5t-116.5 80t-73.5 118t-25.5 144.5zM199 1055q0 -59 18.5 -111.5t53 -92.5t88 -62.5t124.5 -22.5 q70 0 123 22.5t88 62.5t53.5 92t18.5 112q0 59 -18.5 111.5t-53.5 92t-88 62t-123 22.5q-72 0 -125 -22.5t-87.5 -62t-53 -92t-18.5 -111.5zM369 893v340h133q57 0 81.5 -23.5t24.5 -66.5v-47q0 -25 -10 -44.5t-39 -35.5l90 -123h-69l-84 113h-70v-113h-57zM426 1059h74 q29 0 39 10t10 29v41q0 25 -11.5 33t-37.5 8h-74v-121z" />
<glyph unicode="&#xaf;" horiz-adv-x="759" d="M133 1139v121h494v-121h-494z" />
<glyph unicode="&#xb0;" horiz-adv-x="712" d="M123 1110q0 49 15.5 91t45 74t72.5 50t100 18q113 0 173.5 -68.5t60.5 -164.5t-60.5 -164.5t-173.5 -68.5q-57 0 -100 18t-72.5 50t-45 74t-15.5 91zM227 1110q0 -59 32 -100t97 -41q66 0 97.5 41t31.5 100t-31.5 100t-97.5 41t-97.5 -41t-31.5 -100z" />
<glyph unicode="&#xb1;" horiz-adv-x="1118" d="M143 0v135h832v-135h-832zM143 614v144h340v346h152v-346h340v-144h-340v-346h-152v346h-340z" />
<glyph unicode="&#xb2;" horiz-adv-x="794" d="M143 831v107q25 31 44.5 52.5t40 46t48 57t70.5 86.5q53 63 83 102t43 63.5t16.5 41t3.5 36.5v31q0 57 -26 77.5t-106 20.5q-51 0 -102 -8t-88 -18l-20 116q41 14 103 24.5t118 10.5q139 0 198.5 -51t59.5 -160v-39q0 -35 -4 -61.5t-18.5 -54t-39 -63.5t-67.5 -89 q-39 -49 -63.5 -78.5t-41 -50t-31 -38t-32.5 -40.5h299v-121h-488z" />
<glyph unicode="&#xb3;" horiz-adv-x="790" d="M154 842l14 108q106 -18 207 -18q82 0 105.5 23.5t23.5 74.5v68q0 92 -115 92h-188v117h190q59 0 77.5 24.5t18.5 59.5v82q0 51 -27.5 69.5t-97.5 18.5q-47 0 -96 -3.5t-90 -11.5l-10 109q37 10 93 16t110 6q139 0 195.5 -45t56.5 -149v-86q0 -45 -17.5 -82t-71.5 -64 q49 -16 77 -51t28 -100v-72q0 -53 -12.5 -93t-43 -66.5t-81.5 -40t-131 -13.5q-53 0 -110.5 7t-104.5 20z" />
<glyph unicode="&#xb4;" horiz-adv-x="641" d="M143 1225q78 45 153 93t128 93l74 -115q-72 -53 -139.5 -95t-145.5 -83z" />
<glyph unicode="&#xb5;" horiz-adv-x="1091" d="M154 -403v1400h172v-772q2 -82 96 -82q27 0 67.5 8.5t87 21.5t92.5 31.5t87 39.5v753h172v-997h-140l-16 86q-41 -20 -92 -38.5t-105.5 -34t-106.5 -24.5t-97 -9q-12 0 -23.5 1t-21.5 3v-387h-172z" />
<glyph unicode="&#xb6;" horiz-adv-x="1052" d="M133 936q0 92 33 170t90 135t135 90t168 33v-854q-90 0 -168 32.5t-135 90t-90 135.5t-33 168zM508 -322q74 70 115 110t60 64.5t23.5 40t4.5 33.5v1438h147v-1444q0 -37 -5 -61.5t-30.5 -57t-78 -84t-146.5 -141.5z" />
<glyph unicode="&#xb7;" horiz-adv-x="524" d="M174 543v235h176v-235h-176z" />
<glyph unicode="&#xb8;" horiz-adv-x="634" d="M133 -373l21 84q27 -8 62.5 -14t64.5 -6q59 0 84.5 17.5t25.5 45.5q0 59 -86 60q-18 0 -31.5 -3.5t-29.5 -7.5l-60 27l43 197h99l-29 -142q27 6 55 6q68 0 109 -32.5t41 -102.5t-50.5 -114.5t-154.5 -44.5q-41 0 -85 8t-79 22z" />
<glyph unicode="&#xb9;" horiz-adv-x="681" d="M113 1522l243 139h111v-830h-137v670l-166 -84z" />
<glyph unicode="&#xba;" horiz-adv-x="806" d="M154 1016v178q0 49 13 91t44 73t78 49t114 18q68 0 115 -18t77 -49t44 -73t14 -91v-178q0 -49 -14 -91t-44 -73t-77 -49.5t-115 -18.5t-114.5 18.5t-77.5 49.5t-44 73t-13 91zM258 1012q0 -135 145 -135q143 0 144 135v186q0 135 -144 135q-145 0 -145 -135v-186z" />
<glyph unicode="&#xbb;" horiz-adv-x="991" d="M133 182l209 318l-209 317l119 78l260 -395l-260 -396zM530 182l209 318l-209 317l119 78l260 -395l-260 -396z" />
<glyph unicode="&#xbc;" horiz-adv-x="1710" d="M123 1184l244 139h110v-829h-137v669l-166 -84zM457 -20l569 1411l113 -48l-568 -1411zM934 178v113l323 538h189v-538h121v-113h-121v-178h-131v178h-381zM1077 291h238v416z" />
<glyph unicode="&#xbd;" horiz-adv-x="1742" d="M123 1184l244 139h110v-829h-137v669l-166 -84zM455 -20l569 1411l113 -48l-568 -1411zM1092 0v106q25 31 44 52.5t39.5 46t48 57.5t70.5 86q53 63 83 102t43.5 64t16.5 41t3 37v31q0 57 -25.5 77.5t-105.5 20.5q-51 0 -102.5 -8t-88.5 -19l-20 117q41 14 103.5 24.5 t117.5 10.5q139 0 198.5 -51.5t59.5 -159.5v-39q0 -35 -4 -61.5t-18.5 -54t-39 -63.5t-67.5 -89q-39 -49 -63.5 -79t-41 -50.5t-31 -38t-32.5 -39.5h299v-121h-487z" />
<glyph unicode="&#xbe;" horiz-adv-x="1781" d="M154 508l14 108q106 -18 207 -18q82 0 105.5 23.5t23.5 74.5v68q0 92 -115 92h-188v117h190q59 0 77.5 24.5t18.5 59.5v82q0 51 -27.5 69.5t-97.5 18.5q-47 0 -96 -3t-90 -12l-10 109q37 10 93 16t110 6q139 0 195.5 -45t56.5 -149v-86q0 -45 -17.5 -82t-71.5 -63 q49 -16 77 -51.5t28 -100.5v-72q0 -53 -12.5 -93t-43 -66.5t-81.5 -40t-131 -13.5q-53 0 -110.5 7.5t-104.5 19.5zM532 -20l570 1411l112 -48l-567 -1411zM1006 178v113l323 538h189v-538h120v-113h-120v-178h-132v178h-380zM1149 291h237v416z" />
<glyph unicode="&#xbf;" horiz-adv-x="974" d="M133 -55q0 82 4 138t22.5 99t55.5 82t102 90q66 51 124.5 94.5t123.5 94.5l99 -131q-59 -47 -111.5 -84t-116.5 -88q-47 -39 -73.5 -67t-39 -56.5t-15.5 -66.5t-3 -97q0 -66 7 -108t32 -68.5t72 -36.5t127 -10q31 0 67.5 2t76.5 6t80 9t73 13l22 -147q-29 -8 -69.5 -14.5 t-85.5 -11.5t-91.5 -8t-85.5 -3q-125 0 -202.5 22.5t-120.5 68.5t-58.5 114.5t-15.5 163.5zM489 762v235h177v-235h-177z" />
<glyph unicode="&#xc0;" d="M57 0l461 1364h238l461 -1364h-179l-112 328h-580l-110 -328h-179zM393 481h488l-244 756zM395 1618l78 119q63 -47 125 -87t131 -81l-69 -113q-72 35 -136.5 75t-128.5 87z" />
<glyph unicode="&#xc1;" d="M57 0l461 1364h238l461 -1364h-179l-112 328h-580l-110 -328h-179zM393 481h488l-244 756zM561 1569q70 41 131.5 81t124.5 87l78 -119q-63 -47 -127.5 -87t-136.5 -75z" />
<glyph unicode="&#xc2;" d="M57 0l461 1364h238l461 -1364h-179l-112 328h-580l-110 -328h-179zM381 1552q66 41 125 80t131 94q72 -55 131.5 -94t124.5 -80l-53 -96q-59 29 -105.5 55.5t-97.5 59.5q-51 -33 -97 -59.5t-106 -55.5zM393 481h488l-244 756z" />
<glyph unicode="&#xc3;" d="M57 0l461 1364h238l461 -1364h-179l-112 328h-580l-110 -328h-179zM354 1556q31 49 79 86t103 37q31 0 56.5 -9t60.5 -25q41 -20 65.5 -30.5t47.5 -10.5q53 0 92 61l84 -57q-27 -57 -70 -93t-106 -36q-31 0 -57.5 8.5t-65.5 28.5q-31 16 -55.5 27t-53.5 11 q-35 0 -59.5 -20.5t-46.5 -46.5zM393 481h488l-244 756z" />
<glyph unicode="&#xc4;" d="M57 0l461 1364h238l461 -1364h-179l-112 328h-580l-110 -328h-179zM374 1483v159h164v-159h-164zM393 481h488l-244 756zM737 1483v159h164v-159h-164z" />
<glyph unicode="&#xc5;" d="M57 0l461 1364h238l461 -1364h-179l-112 328h-580l-110 -328h-179zM393 481h488l-244 756zM495 1567q0 59 35 100t106 41q72 0 108 -41t36 -100q0 -57 -36 -98.5t-108 -41.5t-106.5 41t-34.5 99zM575 1567q0 -29 16.5 -47.5t44.5 -18.5q31 0 46.5 18.5t15.5 47.5 q0 31 -15.5 49t-46.5 18q-29 0 -45 -18.5t-16 -48.5z" />
<glyph unicode="&#xc6;" horiz-adv-x="1718" d="M57 0l461 1364h1065v-158h-774l143 -428h586v-157h-532l157 -463h422v-158h-547l-112 328h-580l-110 -328h-179zM393 481h488l-244 756z" />
<glyph unicode="&#xc7;" horiz-adv-x="1056" d="M143 381v602q0 193 108.5 297t358.5 104q39 0 83 -3t90 -7t90.5 -11t80.5 -15l-18 -152q-39 6 -82 12t-86 9.5t-82 5.5t-70 2q-84 0 -140 -12.5t-91 -42t-50.5 -78t-15.5 -119.5v-582q0 -72 15.5 -120t50.5 -77.5t91 -42t140 -12.5q31 0 70 2t82 5.5t86 9.5t82 12 l18 -152q-70 -16 -159.5 -25t-165.5 -11l-23 -109q27 6 56 6q68 0 108.5 -32.5t40.5 -102.5t-50 -115t-155 -45q-41 0 -85 8.5t-79 22.5l21 84q27 -8 62.5 -14.5t64.5 -6.5q59 0 84.5 17.5t25.5 46.5q0 59 -86 59q-18 0 -31.5 -3t-29.5 -7l-59 27l36 168q-207 14 -297 116.5 t-90 280.5z" />
<glyph unicode="&#xc8;" horiz-adv-x="1105" d="M174 0v1364h803v-158h-627v-428h582v-157h-582v-463h629v-158h-805zM356 1618l78 119q63 -47 125 -87t131 -81l-69 -113q-72 35 -136.5 75t-128.5 87z" />
<glyph unicode="&#xc9;" horiz-adv-x="1105" d="M174 0v1364h803v-158h-627v-428h582v-157h-582v-463h629v-158h-805zM469 1569q70 41 131.5 81t124.5 87l78 -119q-63 -47 -127.5 -87t-136.5 -75z" />
<glyph unicode="&#xca;" horiz-adv-x="1105" d="M174 0v1364h803v-158h-627v-428h582v-157h-582v-463h629v-158h-805zM338 1552q66 41 125 80t131 94q72 -55 131.5 -94t124.5 -80l-53 -96q-59 29 -105.5 55.5t-97.5 59.5q-51 -33 -97 -59.5t-106 -55.5z" />
<glyph unicode="&#xcb;" horiz-adv-x="1105" d="M174 0v1364h803v-158h-627v-428h582v-157h-582v-463h629v-158h-805zM311 1483v159h164v-159h-164zM674 1483v159h164v-159h-164z" />
<glyph unicode="&#xcc;" horiz-adv-x="544" d="M24 1618l78 119q63 -47 125 -87t131 -81l-69 -113q-72 35 -136.5 75t-128.5 87zM184 0v1364h176v-1364h-176z" />
<glyph unicode="&#xcd;" horiz-adv-x="544" d="M184 0v1364h176v-1364h-176zM196 1569q70 41 131.5 81t124.5 87l78 -119q-63 -47 -127.5 -87t-136.5 -75z" />
<glyph unicode="&#xce;" horiz-adv-x="544" d="M18 1552q66 41 125 80t131 94q72 -55 131.5 -94t124.5 -80l-53 -96q-59 29 -105.5 55.5t-97.5 59.5q-51 -33 -97 -59.5t-106 -55.5zM184 0v1364h176v-1364h-176z" />
<glyph unicode="&#xcf;" horiz-adv-x="544" d="M12 1483v159h164v-159h-164zM184 0v1364h176v-1364h-176zM375 1483v159h164v-159h-164z" />
<glyph unicode="&#xd0;" horiz-adv-x="1292" d="M82 621v143h162v600h477q125 0 209 -30.5t135 -84t72.5 -124t21.5 -152.5v-582q0 -82 -21.5 -152.5t-72.5 -124t-135 -84t-209 -30.5h-477v621h-162zM420 158h295q78 0 129 16t81.5 47t44 77t13.5 105v558q0 59 -13.5 105t-44 77t-81.5 47t-129 16h-295v-442h270v-143 h-270v-463z" />
<glyph unicode="&#xd1;" horiz-adv-x="1351" d="M174 0v1364h242l594 -1167v1167h168v-1364h-242l-594 1161v-1161h-168zM399 1556q31 49 79 86t103 37q31 0 56.5 -9t60.5 -25q41 -20 65.5 -30.5t47.5 -10.5q53 0 92 61l84 -57q-27 -57 -70 -93t-106 -36q-31 0 -57.5 8.5t-65.5 28.5q-31 16 -55.5 27t-53.5 11 q-35 0 -59.5 -20.5t-46.5 -46.5z" />
<glyph unicode="&#xd2;" d="M143 393v578q0 86 28 160.5t87 131t152.5 89t226.5 32.5q131 0 225 -32.5t153.5 -89t87 -131t27.5 -160.5v-578q0 -86 -27.5 -160.5t-87 -131t-153.5 -89t-225 -32.5q-133 0 -226.5 32.5t-152.5 89t-87 131t-28 160.5zM319 397q0 -127 78 -194.5t240 -67.5t239.5 67.5 t77.5 194.5v570q0 127 -77.5 194.5t-239.5 67.5t-240 -67.5t-78 -194.5v-570zM399 1618l78 119q63 -47 125 -87t131 -81l-69 -113q-72 35 -136.5 75t-128.5 87z" />
<glyph unicode="&#xd3;" d="M143 393v578q0 86 28 160.5t87 131t152.5 89t226.5 32.5q131 0 225 -32.5t153.5 -89t87 -131t27.5 -160.5v-578q0 -86 -27.5 -160.5t-87 -131t-153.5 -89t-225 -32.5q-133 0 -226.5 32.5t-152.5 89t-87 131t-28 160.5zM319 397q0 -127 78 -194.5t240 -67.5t239.5 67.5 t77.5 194.5v570q0 127 -77.5 194.5t-239.5 67.5t-240 -67.5t-78 -194.5v-570zM542 1569q70 41 131.5 81t124.5 87l78 -119q-63 -47 -127.5 -87t-136.5 -75z" />
<glyph unicode="&#xd4;" d="M143 393v578q0 86 28 160.5t87 131t152.5 89t226.5 32.5q131 0 225 -32.5t153.5 -89t87 -131t27.5 -160.5v-578q0 -86 -27.5 -160.5t-87 -131t-153.5 -89t-225 -32.5q-133 0 -226.5 32.5t-152.5 89t-87 131t-28 160.5zM319 397q0 -127 78 -194.5t240 -67.5t239.5 67.5 t77.5 194.5v570q0 127 -77.5 194.5t-239.5 67.5t-240 -67.5t-78 -194.5v-570zM381 1552q66 41 125 80t131 94q72 -55 131.5 -94t124.5 -80l-53 -96q-59 29 -105.5 55.5t-97.5 59.5q-51 -33 -97 -59.5t-106 -55.5z" />
<glyph unicode="&#xd5;" d="M143 393v578q0 86 28 160.5t87 131t152.5 89t226.5 32.5q131 0 225 -32.5t153.5 -89t87 -131t27.5 -160.5v-578q0 -86 -27.5 -160.5t-87 -131t-153.5 -89t-225 -32.5q-133 0 -226.5 32.5t-152.5 89t-87 131t-28 160.5zM319 397q0 -127 78 -194.5t240 -67.5t239.5 67.5 t77.5 194.5v570q0 127 -77.5 194.5t-239.5 67.5t-240 -67.5t-78 -194.5v-570zM344 1556q31 49 79 86t103 37q31 0 56.5 -9t60.5 -25q41 -20 65.5 -30.5t47.5 -10.5q53 0 92 61l84 -57q-27 -57 -70 -93t-106 -36q-31 0 -57.5 8.5t-65.5 28.5q-31 16 -55.5 27t-53.5 11 q-35 0 -59.5 -20.5t-46.5 -46.5z" />
<glyph unicode="&#xd6;" d="M143 393v578q0 86 28 160.5t87 131t152.5 89t226.5 32.5q131 0 225 -32.5t153.5 -89t87 -131t27.5 -160.5v-578q0 -86 -27.5 -160.5t-87 -131t-153.5 -89t-225 -32.5q-133 0 -226.5 32.5t-152.5 89t-87 131t-28 160.5zM319 397q0 -127 78 -194.5t240 -67.5t239.5 67.5 t77.5 194.5v570q0 127 -77.5 194.5t-239.5 67.5t-240 -67.5t-78 -194.5v-570zM374 1483v159h164v-159h-164zM737 1483v159h164v-159h-164z" />
<glyph unicode="&#xd7;" horiz-adv-x="1071" d="M143 207l289 289l-289 290l103 101l289 -287l290 287l103 -101l-289 -290l289 -289l-103 -103l-290 289l-289 -289z" />
<glyph unicode="&#xd8;" d="M143 -70l105 181q-53 55 -79 127.5t-26 154.5v578q0 86 28 160.5t87 131t152.5 89t226.5 32.5q98 0 173 -17t132 -50l98 170l90 -53l-104 -183q53 -55 78.5 -126.5t25.5 -153.5v-578q0 -86 -27.5 -160.5t-87 -131t-153.5 -89t-225 -32.5q-98 0 -173 17t-132 50l-99 -170z M319 397q0 -66 23 -121l518 898q-84 55 -223 55q-162 0 -240 -67.5t-78 -194.5v-570zM414 190q76 -55 223 -55q162 0 239.5 67.5t77.5 194.5v570q0 68 -24 120z" />
<glyph unicode="&#xd9;" horiz-adv-x="1294" d="M164 383v981h176v-971q0 -127 72.5 -191.5t234.5 -64.5t234.5 64.5t72.5 191.5v971h176v-981q0 -84 -25.5 -157.5t-82.5 -128t-149.5 -86t-225.5 -31.5t-225 31.5t-149.5 86t-83 128t-25.5 157.5zM430 1618l78 119q63 -47 125 -87t131 -81l-69 -113q-72 35 -136.5 75 t-128.5 87z" />
<glyph unicode="&#xda;" horiz-adv-x="1294" d="M164 383v981h176v-971q0 -127 72.5 -191.5t234.5 -64.5t234.5 64.5t72.5 191.5v971h176v-981q0 -84 -25.5 -157.5t-82.5 -128t-149.5 -86t-225.5 -31.5t-225 31.5t-149.5 86t-83 128t-25.5 157.5zM542 1569q70 41 131.5 81t124.5 87l78 -119q-63 -47 -127.5 -87 t-136.5 -75z" />
<glyph unicode="&#xdb;" horiz-adv-x="1294" d="M164 383v981h176v-971q0 -127 72.5 -191.5t234.5 -64.5t234.5 64.5t72.5 191.5v971h176v-981q0 -84 -25.5 -157.5t-82.5 -128t-149.5 -86t-225.5 -31.5t-225 31.5t-149.5 86t-83 128t-25.5 157.5zM391 1552q66 41 125 80t131 94q72 -55 131.5 -94t124.5 -80l-53 -96 q-59 29 -105.5 55.5t-97.5 59.5q-51 -33 -97 -59.5t-106 -55.5z" />
<glyph unicode="&#xdc;" horiz-adv-x="1294" d="M164 383v981h176v-971q0 -127 72.5 -191.5t234.5 -64.5t234.5 64.5t72.5 191.5v971h176v-981q0 -84 -25.5 -157.5t-82.5 -128t-149.5 -86t-225.5 -31.5t-225 31.5t-149.5 86t-83 128t-25.5 157.5zM385 1483v159h164v-159h-164zM748 1483v159h164v-159h-164z" />
<glyph unicode="&#xdd;" horiz-adv-x="1122" d="M20 1364h185l356 -762l357 762h184l-453 -952v-412h-176v412zM481 1569q70 41 131.5 81t124.5 87l78 -119q-63 -47 -127.5 -87t-136.5 -75z" />
<glyph unicode="&#xde;" horiz-adv-x="1134" d="M174 0v1364h176v-236h318q111 0 185.5 -23.5t121.5 -66.5t67.5 -105.5t20.5 -139.5v-203q0 -80 -20.5 -142.5t-67.5 -105.5t-122 -66.5t-185 -23.5h-318v-252h-176zM350 410h312q127 0 176 39.5t49 140.5v201q0 102 -49.5 141t-175.5 39h-312v-561z" />
<glyph unicode="&#xdf;" horiz-adv-x="1216" d="M174 0v1071q0 178 100.5 276.5t290.5 98.5q98 0 170 -24.5t118 -67.5t68.5 -100.5t22.5 -123.5q0 -57 -17.5 -120.5t-64.5 -145.5q-41 -74 -55 -109.5t-14 -72.5q0 -12 3 -25.5t16 -32t41 -43t79 -61.5q61 -45 98 -75.5t55.5 -59.5t23.5 -61.5t5 -83.5q0 -61 -12 -110.5 t-45 -82.5t-91.5 -50t-152.5 -17q-45 0 -110.5 8t-120.5 26l20 133q45 -10 103.5 -16t93.5 -6q92 0 119.5 26.5t27.5 79.5q0 33 -3 53.5t-18.5 40t-48 44t-90.5 65.5q-55 37 -87.5 67.5t-50 59.5t-22.5 56.5t-5 62.5q0 53 15 97t50 104q29 51 46.5 85.5t26.5 62.5t11 50.5 t2 50.5q0 78 -48 124t-159 46q-109 0 -164 -50t-55 -179v-1071h-172z" />
<glyph unicode="&#xe0;" horiz-adv-x="1009" d="M127 266q0 156 77 218.5t228 62.5h266v155q0 94 -48 131t-169 37q-37 0 -76.5 -3t-79.5 -7t-77 -10t-66 -12l-18 137q72 18 160 30.5t168 12.5q106 0 178.5 -20.5t116.5 -61.5t63.5 -101.5t19.5 -140.5v-694h-145l-10 74q-66 -47 -149 -70.5t-175 -23.5 q-141 0 -202.5 76.5t-61.5 209.5zM293 1296l74 115q53 -45 128 -93t153 -93l-70 -107q-78 41 -145.5 83t-139.5 95zM299 270q0 -39 5 -65.5t19.5 -44t42 -25.5t74.5 -8q66 0 133.5 22.5t124.5 59.5v194h-254q-80 0 -112.5 -28.5t-32.5 -104.5z" />
<glyph unicode="&#xe1;" horiz-adv-x="1009" d="M127 266q0 156 77 218.5t228 62.5h266v155q0 94 -48 131t-169 37q-37 0 -76.5 -3t-79.5 -7t-77 -10t-66 -12l-18 137q72 18 160 30.5t168 12.5q106 0 178.5 -20.5t116.5 -61.5t63.5 -101.5t19.5 -140.5v-694h-145l-10 74q-66 -47 -149 -70.5t-175 -23.5 q-141 0 -202.5 76.5t-61.5 209.5zM299 270q0 -39 5 -65.5t19.5 -44t42 -25.5t74.5 -8q66 0 133.5 22.5t124.5 59.5v194h-254q-80 0 -112.5 -28.5t-32.5 -104.5zM370 1225q78 45 153 93t128 93l74 -115q-72 -53 -139.5 -95t-145.5 -83z" />
<glyph unicode="&#xe2;" horiz-adv-x="1009" d="M127 266q0 156 77 218.5t228 62.5h266v155q0 94 -48 131t-169 37q-37 0 -76.5 -3t-79.5 -7t-77 -10t-66 -12l-18 137q72 18 160 30.5t168 12.5q106 0 178.5 -20.5t116.5 -61.5t63.5 -101.5t19.5 -140.5v-694h-145l-10 74q-66 -47 -149 -70.5t-175 -23.5 q-141 0 -202.5 76.5t-61.5 209.5zM235 1200q72 43 134.5 87t138.5 106q76 -61 138 -105.5t134 -87.5l-62 -96q-35 18 -62.5 34.5t-52 32t-48 33t-47.5 37.5q-51 -41 -96.5 -69.5t-114.5 -67.5zM299 270q0 -39 5 -65.5t19.5 -44t42 -25.5t74.5 -8q66 0 133.5 22.5t124.5 59.5 v194h-254q-80 0 -112.5 -28.5t-32.5 -104.5z" />
<glyph unicode="&#xe3;" horiz-adv-x="1009" d="M127 266q0 156 77 218.5t228 62.5h266v155q0 94 -48 131t-169 37q-37 0 -76.5 -3t-79.5 -7t-77 -10t-66 -12l-18 137q72 18 160 30.5t168 12.5q106 0 178.5 -20.5t116.5 -61.5t63.5 -101.5t19.5 -140.5v-694h-145l-10 74q-66 -47 -149 -70.5t-175 -23.5 q-141 0 -202.5 76.5t-61.5 209.5zM233 1204q31 49 79 86t103 37q31 0 56.5 -9t60.5 -26q41 -20 65.5 -30.5t47.5 -10.5q53 0 92 62l84 -58q-27 -57 -70 -93t-106 -36q-31 0 -57.5 8.5t-65.5 28.5q-31 16 -55.5 27.5t-53.5 11.5q-35 0 -59.5 -20.5t-46.5 -46.5zM299 270 q0 -39 5 -65.5t19.5 -44t42 -25.5t74.5 -8q66 0 133.5 22.5t124.5 59.5v194h-254q-80 0 -112.5 -28.5t-32.5 -104.5z" />
<glyph unicode="&#xe4;" horiz-adv-x="1009" d="M127 266q0 156 77 218.5t228 62.5h266v155q0 94 -48 131t-169 37q-37 0 -76.5 -3t-79.5 -7t-77 -10t-66 -12l-18 137q72 18 160 30.5t168 12.5q106 0 178.5 -20.5t116.5 -61.5t63.5 -101.5t19.5 -140.5v-694h-145l-10 74q-66 -47 -149 -70.5t-175 -23.5 q-141 0 -202.5 76.5t-61.5 209.5zM266 1149v170h160v-170h-160zM299 270q0 -39 5 -65.5t19.5 -44t42 -25.5t74.5 -8q66 0 133.5 22.5t124.5 59.5v194h-254q-80 0 -112.5 -28.5t-32.5 -104.5zM621 1149v170h159v-170h-159z" />
<glyph unicode="&#xe5;" horiz-adv-x="1009" d="M127 266q0 156 77 218.5t228 62.5h266v155q0 94 -48 131t-169 37q-37 0 -76.5 -3t-79.5 -7t-77 -10t-66 -12l-18 137q72 18 160 30.5t168 12.5q106 0 178.5 -20.5t116.5 -61.5t63.5 -101.5t19.5 -140.5v-694h-145l-10 74q-66 -47 -149 -70.5t-175 -23.5 q-141 0 -202.5 76.5t-61.5 209.5zM299 270q0 -39 5 -65.5t19.5 -44t42 -25.5t74.5 -8q66 0 133.5 22.5t124.5 59.5v194h-254q-80 0 -112.5 -28.5t-32.5 -104.5zM356 1251q0 61 38 105.5t114 44.5t113.5 -44.5t37.5 -105.5t-38 -105t-113 -44q-76 0 -114 44t-38 105z M440 1251q0 -33 17.5 -53t50.5 -20t50 20t17 53t-17.5 53.5t-49.5 20.5q-33 0 -50.5 -20.5t-17.5 -53.5z" />
<glyph unicode="&#xe6;" horiz-adv-x="1570" d="M127 266q0 156 77 218.5t228 62.5h266v155q0 94 -48 131t-169 37q-37 0 -76.5 -3t-79.5 -7t-77 -10t-66 -12l-18 137q72 18 160 30.5t168 12.5q115 0 182 -24.5t121 -75.5q53 49 121.5 74.5t173.5 25.5q111 0 183.5 -30t114.5 -81t59 -119.5t17 -146.5v-209h-594v-106 q2 -53 13.5 -91t38 -61.5t71.5 -35t115 -11.5q74 0 153.5 12.5t161.5 34.5l23 -137q-72 -27 -165 -42t-187 -15q-123 0 -201 29.5t-123 86.5q-74 -53 -167 -84.5t-202 -31.5q-80 0 -133 20t-83.5 57t-44 90.5t-13.5 118.5zM299 270q0 -39 5 -65.5t19.5 -44t42 -25.5t74.5 -8 q72 0 137.5 18.5t137.5 59.5q-16 66 -17 141v57h-254q-80 0 -112.5 -28.5t-32.5 -104.5zM870 575h428v82q0 104 -44 160.5t-164 56.5q-123 0 -171.5 -56t-48.5 -161v-82z" />
<glyph unicode="&#xe7;" horiz-adv-x="837" d="M102 342v313q0 86 18.5 154t63.5 114t122 70.5t194 24.5q66 0 132 -9.5t105 -21.5l-14 -143q-59 12 -112.5 17t-106.5 5q-129 0 -179.5 -44t-50.5 -160v-326q0 -117 50.5 -161t179.5 -44q53 0 106.5 5t112.5 18l16 -144q-39 -12 -106.5 -21t-132.5 -9l-23 -109q27 6 55 6 q68 0 109 -32.5t41 -102.5t-50 -115t-155 -45q-41 0 -85 8.5t-79 22.5l21 84q27 -8 62.5 -14.5t64.5 -6.5q59 0 84.5 17.5t25.5 46.5q0 59 -86 59q-18 0 -31.5 -3t-29.5 -7l-59 27l36 170q-90 8 -147 36.5t-91 73.5t-47.5 106.5t-13.5 139.5z" />
<glyph unicode="&#xe8;" horiz-adv-x="985" d="M113 346v299q0 78 19.5 145.5t64.5 119t120.5 80t186.5 28.5t183.5 -30t114.5 -81t59.5 -119.5t17.5 -146.5v-209h-594v-84q0 -59 10 -101t35.5 -68.5t72 -39t119.5 -12.5q74 0 154 12.5t162 34.5l22 -137q-72 -27 -165 -42t-187 -15q-111 0 -186.5 25.5t-121.5 72.5 t-66.5 115.5t-20.5 152.5zM278 1296l74 115q53 -45 128 -93t153 -93l-70 -107q-78 41 -145.5 83t-139.5 95zM285 575h428v82q0 104 -44 160.5t-165 56.5q-123 0 -171 -56t-48 -161v-82z" />
<glyph unicode="&#xe9;" horiz-adv-x="985" d="M113 346v299q0 78 19.5 145.5t64.5 119t120.5 80t186.5 28.5t183.5 -30t114.5 -81t59.5 -119.5t17.5 -146.5v-209h-594v-84q0 -59 10 -101t35.5 -68.5t72 -39t119.5 -12.5q74 0 154 12.5t162 34.5l22 -137q-72 -27 -165 -42t-187 -15q-111 0 -186.5 25.5t-121.5 72.5 t-66.5 115.5t-20.5 152.5zM285 575h428v82q0 104 -44 160.5t-165 56.5q-123 0 -171 -56t-48 -161v-82zM374 1225q78 45 153 93t128 93l74 -115q-72 -53 -139.5 -95t-145.5 -83z" />
<glyph unicode="&#xea;" horiz-adv-x="985" d="M113 346v299q0 78 19.5 145.5t64.5 119t120.5 80t186.5 28.5t183.5 -30t114.5 -81t59.5 -119.5t17.5 -146.5v-209h-594v-84q0 -59 10 -101t35.5 -68.5t72 -39t119.5 -12.5q74 0 154 12.5t162 34.5l22 -137q-72 -27 -165 -42t-187 -15q-111 0 -186.5 25.5t-121.5 72.5 t-66.5 115.5t-20.5 152.5zM246 1200q72 43 134.5 87t138.5 106q76 -61 138 -105.5t134 -87.5l-62 -96q-35 18 -62.5 34.5t-52 32t-48 33t-47.5 37.5q-51 -41 -96.5 -69.5t-114.5 -67.5zM285 575h428v82q0 104 -44 160.5t-165 56.5q-123 0 -171 -56t-48 -161v-82z" />
<glyph unicode="&#xeb;" horiz-adv-x="985" d="M113 346v299q0 78 19.5 145.5t64.5 119t120.5 80t186.5 28.5t183.5 -30t114.5 -81t59.5 -119.5t17.5 -146.5v-209h-594v-84q0 -59 10 -101t35.5 -68.5t72 -39t119.5 -12.5q74 0 154 12.5t162 34.5l22 -137q-72 -27 -165 -42t-187 -15q-111 0 -186.5 25.5t-121.5 72.5 t-66.5 115.5t-20.5 152.5zM258 1149v170h160v-170h-160zM285 575h428v82q0 104 -44 160.5t-165 56.5q-123 0 -171 -56t-48 -161v-82zM613 1149v170h159v-170h-159z" />
<glyph unicode="&#xec;" horiz-adv-x="499" d="M6 1296l74 115q53 -45 128 -93t153 -93l-70 -107q-78 41 -145.5 83t-139.5 95zM164 0v997h172v-997h-172z" />
<glyph unicode="&#xed;" horiz-adv-x="499" d="M164 0v997h172v-997h-172zM166 1225q78 45 153 93t128 93l74 -115q-72 -53 -139.5 -95t-145.5 -83z" />
<glyph unicode="&#xee;" horiz-adv-x="499" d="M-21 1200q72 43 134.5 87t138.5 106q76 -61 138 -105.5t134 -87.5l-62 -96q-35 18 -62.5 34.5t-52 32t-48 33t-47.5 37.5q-51 -41 -96.5 -69.5t-114.5 -67.5zM164 0v997h172v-997h-172z" />
<glyph unicode="&#xef;" horiz-adv-x="499" d="M-4 1149v170h160v-170h-160zM164 0v997h172v-997h-172zM351 1149v170h159v-170h-159z" />
<glyph unicode="&#xf0;" horiz-adv-x="1060" d="M133 336v229q0 94 16.5 166t58.5 119t111.5 71.5t176.5 24.5q63 0 133.5 -17.5t126.5 -49.5q-8 92 -49 159.5t-113 120.5l-176 -127l-60 78l148 107q-47 25 -99.5 45t-111.5 41l43 133q78 -23 151.5 -54.5t143.5 -72.5l135 96l59 -78l-108 -78q94 -78 151.5 -195.5 t57.5 -297.5v-420q0 -78 -21.5 -142.5t-68.5 -112.5t-123 -74.5t-185 -26.5q-115 0 -190.5 26.5t-121.5 74.5t-65.5 112.5t-19.5 142.5zM305 362q0 -53 7 -96t30 -73.5t67.5 -47t120.5 -16.5t121 16.5t67.5 47t30 73.5t7.5 96v357q-115 80 -246 80q-111 0 -158 -50.5 t-47 -158.5v-228z" />
<glyph unicode="&#xf1;" horiz-adv-x="1091" d="M164 0v997h139l16 -86q41 20 92.5 39t105.5 34t106.5 24.5t97.5 9.5q121 0 169 -68.5t48 -185.5v-764h-172v762q0 49 -24.5 70.5t-71.5 21.5q-29 0 -69 -8t-86 -21.5t-93 -32t-86 -38.5v-754h-172zM262 1204q31 49 79 86t103 37q31 0 56.5 -9t60.5 -26q41 -20 65.5 -30.5 t47.5 -10.5q53 0 92 62l84 -58q-27 -57 -70 -93t-106 -36q-31 0 -57.5 8.5t-65.5 28.5q-31 16 -55.5 27.5t-53.5 11.5q-35 0 -59.5 -20.5t-46.5 -46.5z" />
<glyph unicode="&#xf2;" horiz-adv-x="1036" d="M113 354v289q0 78 22.5 146.5t71.5 118.5t126 80t185 30q109 0 185.5 -30t126 -80t72 -118.5t22.5 -146.5v-289q0 -78 -22.5 -146.5t-72 -119.5t-126 -79.5t-185.5 -28.5t-185.5 28.5t-125.5 79.5t-71.5 119.5t-22.5 146.5zM260 1296l74 115q53 -45 128 -93t153 -93 l-70 -107q-78 41 -145.5 83t-139.5 95zM285 348q0 -219 233 -219t234 219v301q0 219 -234 219q-233 0 -233 -219v-301z" />
<glyph unicode="&#xf3;" horiz-adv-x="1036" d="M113 354v289q0 78 22.5 146.5t71.5 118.5t126 80t185 30q109 0 185.5 -30t126 -80t72 -118.5t22.5 -146.5v-289q0 -78 -22.5 -146.5t-72 -119.5t-126 -79.5t-185.5 -28.5t-185.5 28.5t-125.5 79.5t-71.5 119.5t-22.5 146.5zM285 348q0 -219 233 -219t234 219v301 q0 219 -234 219q-233 0 -233 -219v-301zM389 1225q78 45 153 93t128 93l74 -115q-72 -53 -139.5 -95t-145.5 -83z" />
<glyph unicode="&#xf4;" horiz-adv-x="1036" d="M113 354v289q0 78 22.5 146.5t71.5 118.5t126 80t185 30q109 0 185.5 -30t126 -80t72 -118.5t22.5 -146.5v-289q0 -78 -22.5 -146.5t-72 -119.5t-126 -79.5t-185.5 -28.5t-185.5 28.5t-125.5 79.5t-71.5 119.5t-22.5 146.5zM246 1200q72 43 134.5 87t138.5 106 q76 -61 138 -105.5t134 -87.5l-62 -96q-35 18 -62.5 34.5t-52 32t-48 33t-47.5 37.5q-51 -41 -96.5 -69.5t-114.5 -67.5zM285 348q0 -219 233 -219t234 219v301q0 219 -234 219q-233 0 -233 -219v-301z" />
<glyph unicode="&#xf5;" horiz-adv-x="1036" d="M113 354v289q0 78 22.5 146.5t71.5 118.5t126 80t185 30q109 0 185.5 -30t126 -80t72 -118.5t22.5 -146.5v-289q0 -78 -22.5 -146.5t-72 -119.5t-126 -79.5t-185.5 -28.5t-185.5 28.5t-125.5 79.5t-71.5 119.5t-22.5 146.5zM235 1204q31 49 79 86t103 37q31 0 56.5 -9 t60.5 -26q41 -20 65.5 -30.5t47.5 -10.5q53 0 92 62l84 -58q-27 -57 -70 -93t-106 -36q-31 0 -57.5 8.5t-65.5 28.5q-31 16 -55.5 27.5t-53.5 11.5q-35 0 -59.5 -20.5t-46.5 -46.5zM285 348q0 -219 233 -219t234 219v301q0 219 -234 219q-233 0 -233 -219v-301z" />
<glyph unicode="&#xf6;" horiz-adv-x="1036" d="M113 354v289q0 78 22.5 146.5t71.5 118.5t126 80t185 30q109 0 185.5 -30t126 -80t72 -118.5t22.5 -146.5v-289q0 -78 -22.5 -146.5t-72 -119.5t-126 -79.5t-185.5 -28.5t-185.5 28.5t-125.5 79.5t-71.5 119.5t-22.5 146.5zM262 1149v170h160v-170h-160zM285 348 q0 -219 233 -219t234 219v301q0 219 -234 219q-233 0 -233 -219v-301zM617 1149v170h159v-170h-159z" />
<glyph unicode="&#xf7;" horiz-adv-x="1101" d="M133 428v139h836v-139h-836zM465 63v193h172v-193h-172zM465 739v193h172v-193h-172z" />
<glyph unicode="&#xf8;" horiz-adv-x="1036" d="M113 -55l92 145q-49 51 -70.5 118.5t-21.5 145.5v289q0 78 22.5 146.5t71.5 118.5t126 80t185 30q76 0 135.5 -14.5t106.5 -40.5l88 137l76 -47l-93 -146q47 -51 70 -118.5t23 -145.5v-289q0 -78 -22.5 -146.5t-72 -119.5t-126 -79.5t-185.5 -28.5q-78 0 -137 14t-107 41 l-86 -137zM285 348q0 -66 16 -104l373 583q-57 41 -156 41q-233 0 -233 -219v-301zM360 168q57 -39 158 -39q233 0 234 219v301q0 57 -19 105z" />
<glyph unicode="&#xf9;" horiz-adv-x="1091" d="M154 233v764h172v-761q0 -49 24.5 -71t71.5 -22q27 0 67.5 8.5t87 21.5t92.5 31.5t87 39.5v753h172v-997h-140l-16 86q-41 -20 -92 -38.5t-105.5 -34t-106.5 -24.5t-97 -9q-121 0 -169 68.5t-48 184.5zM317 1296l74 115q53 -45 128 -93t153 -93l-70 -107 q-78 41 -145.5 83t-139.5 95z" />
<glyph unicode="&#xfa;" horiz-adv-x="1091" d="M154 233v764h172v-761q0 -49 24.5 -71t71.5 -22q27 0 67.5 8.5t87 21.5t92.5 31.5t87 39.5v753h172v-997h-140l-16 86q-41 -20 -92 -38.5t-105.5 -34t-106.5 -24.5t-97 -9q-121 0 -169 68.5t-48 184.5zM411 1225q78 45 153 93t128 93l74 -115q-72 -53 -139.5 -95 t-145.5 -83z" />
<glyph unicode="&#xfb;" horiz-adv-x="1091" d="M154 233v764h172v-761q0 -49 24.5 -71t71.5 -22q27 0 67.5 8.5t87 21.5t92.5 31.5t87 39.5v753h172v-997h-140l-16 86q-41 -20 -92 -38.5t-105.5 -34t-106.5 -24.5t-97 -9q-121 0 -169 68.5t-48 184.5zM272 1200q72 43 134.5 87t138.5 106q76 -61 138 -105.5t134 -87.5 l-62 -96q-35 18 -62.5 34.5t-52 32t-48 33t-47.5 37.5q-51 -41 -96.5 -69.5t-114.5 -67.5z" />
<glyph unicode="&#xfc;" horiz-adv-x="1091" d="M154 233v764h172v-761q0 -49 24.5 -71t71.5 -22q27 0 67.5 8.5t87 21.5t92.5 31.5t87 39.5v753h172v-997h-140l-16 86q-41 -20 -92 -38.5t-105.5 -34t-106.5 -24.5t-97 -9q-121 0 -169 68.5t-48 184.5zM293 1149v170h160v-170h-160zM648 1149v170h159v-170h-159z" />
<glyph unicode="&#xfd;" horiz-adv-x="917" d="M16 997h170l273 -860l276 860h170l-330 -997l-141 -403h-162l140 403h-72zM331 1225q78 45 153 93t128 93l74 -115q-72 -53 -139.5 -95t-145.5 -83z" />
<glyph unicode="&#xfe;" horiz-adv-x="1071" d="M164 -428v1833l172 25v-515q59 47 141 75t176 28q291 0 291 -305v-408q0 -150 -74.5 -237.5t-248.5 -87.5q-66 0 -146 9t-139 21v-413zM336 162q70 -14 145.5 -22.5t128.5 -8.5q86 0 124 41t38 133v408q0 78 -30.5 115.5t-123.5 37.5q-74 0 -150.5 -34.5t-131.5 -83.5 v-586z" />
<glyph unicode="&#xff;" horiz-adv-x="917" d="M16 997h170l273 -860l276 860h170l-330 -997l-141 -403h-162l140 403h-72zM211 1149v170h160v-170h-160zM566 1149v170h159v-170h-159z" />
<glyph unicode="&#x152;" horiz-adv-x="1863" d="M143 414v536q0 86 28 161t87 131t152.5 89t226.5 33h1092v-158h-627v-428h581v-157h-581v-463h629v-158h-1094q-133 0 -226.5 33t-152.5 89t-87 131t-28 161zM319 418q0 -127 78 -194.5t240 -67.5h289v1052h-289q-162 0 -240 -67.5t-78 -194.5v-528z" />
<glyph unicode="&#x153;" horiz-adv-x="1624" d="M113 354v289q0 78 22.5 146.5t71.5 118.5t126 80t185 30q111 0 188.5 -30t127.5 -83q45 53 119.5 83t189.5 30q111 0 183.5 -30t114.5 -81t59.5 -119.5t17.5 -146.5v-209h-594v-94q0 -55 10 -95t36.5 -65.5t73 -38t117.5 -12.5q74 0 154 12.5t162 34.5l22 -137 q-72 -27 -165 -42t-187 -15q-117 0 -193.5 27.5t-124.5 80.5q-49 -51 -125.5 -79.5t-185.5 -28.5t-185.5 28.5t-125.5 79.5t-71.5 119.5t-22.5 146.5zM285 348q0 -219 233 -219q115 0 174.5 51t59.5 156v313q0 219 -234 219q-233 0 -233 -219v-301zM924 575h428v82 q0 104 -44 160.5t-165 56.5q-123 0 -171 -56t-48 -161v-82z" />
<glyph unicode="&#x178;" horiz-adv-x="1122" d="M20 1364h185l356 -762l357 762h184l-453 -952v-412h-176v412zM299 1483v159h164v-159h-164zM662 1483v159h164v-159h-164z" />
<glyph unicode="&#x2c6;" horiz-adv-x="811" d="M133 1200q72 43 134.5 87t138.5 106q76 -61 138 -105.5t134 -87.5l-62 -96q-35 18 -62.5 34.5t-52 32t-48 33t-47.5 37.5q-51 -41 -96.5 -69.5t-114.5 -67.5z" />
<glyph unicode="&#x2dc;" horiz-adv-x="854" d="M133 1204q31 49 79 86t103 37q31 0 56.5 -9t60.5 -26q41 -20 65.5 -30.5t47.5 -10.5q53 0 92 62l84 -58q-27 -57 -70 -93t-106 -36q-31 0 -57.5 8.5t-65.5 28.5q-31 16 -55.5 27.5t-53.5 11.5q-35 0 -59.5 -20.5t-46.5 -46.5z" />
<glyph unicode="&#x2000;" horiz-adv-x="868" />
<glyph unicode="&#x2001;" horiz-adv-x="1737" />
<glyph unicode="&#x2002;" horiz-adv-x="868" />
<glyph unicode="&#x2003;" horiz-adv-x="1737" />
<glyph unicode="&#x2004;" horiz-adv-x="579" />
<glyph unicode="&#x2005;" horiz-adv-x="434" />
<glyph unicode="&#x2006;" horiz-adv-x="289" />
<glyph unicode="&#x2007;" horiz-adv-x="289" />
<glyph unicode="&#x2008;" horiz-adv-x="217" />
<glyph unicode="&#x2009;" horiz-adv-x="347" />
<glyph unicode="&#x200a;" horiz-adv-x="96" />
<glyph unicode="&#x2010;" horiz-adv-x="757" d="M123 500v141h512v-141h-512z" />
<glyph unicode="&#x2011;" horiz-adv-x="757" d="M123 500v141h512v-141h-512z" />
<glyph unicode="&#x2012;" horiz-adv-x="757" d="M123 500v141h512v-141h-512z" />
<glyph unicode="&#x2013;" horiz-adv-x="995" d="M123 500v141h749v-141h-749z" />
<glyph unicode="&#x2014;" horiz-adv-x="1253" d="M123 500v141h1007v-141h-1007z" />
<glyph unicode="&#x2018;" horiz-adv-x="520" d="M174 952v236l123 246l80 -39l-86 -207h59v-236h-176z" />
<glyph unicode="&#x2019;" horiz-adv-x="489" d="M154 963l86 206h-60v236h176v-236l-123 -245z" />
<glyph unicode="&#x201a;" horiz-adv-x="520" d="M143 -207l86 207h-59v236h176v-236l-123 -246z" />
<glyph unicode="&#x201c;" horiz-adv-x="886" d="M174 952v236l123 246l80 -39l-86 -207h59v-236h-176zM541 952v236l123 246l79 -39l-86 -207h60v-236h-176z" />
<glyph unicode="&#x201d;" horiz-adv-x="886" d="M143 963l86 206h-59v236h176v-236l-123 -245zM510 963l86 206h-59v236h176v-236l-123 -245z" />
<glyph unicode="&#x201e;" horiz-adv-x="886" d="M143 -207l86 207h-59v236h176v-236l-123 -246zM510 -207l86 207h-59v236h176v-236l-123 -246z" />
<glyph unicode="&#x2022;" horiz-adv-x="763" d="M133 662q0 51 19.5 96t53.5 78.5t79 53t96 19.5t97 -19.5t80 -53t53.5 -78.5t19.5 -96t-19.5 -96.5t-53.5 -79t-80 -53t-97 -19.5t-96 19.5t-79 53t-53.5 79t-19.5 96.5z" />
<glyph unicode="&#x2026;" horiz-adv-x="1572" d="M174 0v236h176v-236h-176zM698 0v236h176v-236h-176zM1223 0v236h176v-236h-176z" />
<glyph unicode="&#x202f;" horiz-adv-x="347" />
<glyph unicode="&#x2039;" horiz-adv-x="593" d="M82 500l260 395l119 -78l-209 -317l209 -318l-119 -78z" />
<glyph unicode="&#x203a;" horiz-adv-x="593" d="M133 182l209 318l-209 317l119 78l260 -395l-260 -396z" />
<glyph unicode="&#x205f;" horiz-adv-x="434" />
<glyph unicode="&#x20ac;" horiz-adv-x="1112" d="M72 455v112h178v224h-178v112h178v39q0 193 108.5 297t358.5 104q152 0 303 -34l-19 -148q-80 14 -148.5 20.5t-129.5 6.5q-84 0 -141.5 -12.5t-93 -42t-51 -77.5t-15.5 -120v-33h448v-112h-448v-224h448v-112h-448v-68q0 -72 15.5 -120t51 -77.5t93 -42t141.5 -12.5 q61 0 131 5t147 20l19 -148q-74 -16 -149.5 -24t-153.5 -8q-250 0 -358.5 103t-108.5 298v74h-178z" />
<glyph unicode="&#x2122;" horiz-adv-x="1046" d="M102 1294v70h322v-70h-123v-350h-76v350h-123zM504 944l12 420h90l113 -301l112 301h91l12 -420h-76l-6 281l-86 -230h-94l-86 230l-6 -281h-76z" />
<glyph unicode="&#x25fc;" horiz-adv-x="993" d="M0 0v993h993v-993h-993z" />
</font>
</defs>
</svg>
